<?xml version="1.0"?>
<svg xmlns="http://www.w3.org/2000/svg" xmlns:xlink="http://www.w3.org/1999/xlink" version="1.1" viewBox="0 0 226 226" width="24px" height="24px"><g fill="none" fill-rule="nonzero" stroke="none" stroke-width="1" stroke-linecap="butt" stroke-linejoin="miter" stroke-miterlimit="10" stroke-dasharray="" stroke-dashoffset="0" font-family="none" font-weight="none" font-size="none" text-anchor="none" style="mix-blend-mode: normal"><path d="M0,226v-226h226v226z" fill="none"/><g fill="#000000"><g id="surface1"><path d="M88.57552,18.83333l5.59115,9.41667v47.08333l-18.83333,9.41667v-47.08333l5.59115,-9.41667h-29.13281l5.59115,9.41667v47.08333l-18.83333,-9.41667l-9.41667,-9.41667l9.41667,18.83333l18.83333,9.41667v28.25l-5.59115,9.41667h30.01562l-5.59115,-9.41667v-28.25l18.83333,-9.41667v47.08333l-4.70833,9.41667h29.13281l-4.70833,-9.41667v-56.5c0,0 17.87696,-8.46028 18.83333,-9.41667v47.08333l-9.41667,-9.41667l10.59375,42.375l-9.41667,-4.70833l16.77344,65.91667v-40.60937l9.41667,2.94271l-9.41667,-37.66667l9.41667,9.41667v-37.66667c2.83235,3.75196 9.41667,9.41667 9.41667,9.41667c2.83235,0 20.70931,-4.81869 23.54167,-7.65104l4.70833,-39.43229c0,0 -8.53385,-20.81966 -13.24219,-26.48437c-0.95638,0 -18.75976,6.69467 -24.42448,7.65104v-9.41667l-18.83333,9.41667v9.41667l-18.83333,9.41667v-37.66667l5.59115,-9.41667zM167.73438,50.90885c0,0 2.64844,31.96517 2.64844,33.84115v9.41667c0,0 -9.41667,10.37305 -9.41667,9.41667l-9.41667,-9.41667v-37.66667c3.75196,-0.95638 15.22852,-6.54752 16.1849,-5.59115z"/></g></g><path d="M113,226c-62.40818,0 -113,-50.59182 -113,-113v0c0,-62.40818 50.59182,-113 113,-113v0c62.40818,0 113,50.59182 113,113v0c0,62.40818 -50.59182,113 -113,113z" fill="none"/><path d="M113,221.48c-59.91185,0 -108.48,-48.56815 -108.48,-108.48v0c0,-59.91185 48.56815,-108.48 108.48,-108.48h0c59.91185,0 108.48,48.56815 108.48,108.48v0c0,59.91185 -48.56815,108.48 -108.48,108.48z" fill="none"/></g></svg>